<?xml version="1.0" standalone="no"?><!DOCTYPE svg PUBLIC "-//W3C//DTD SVG 1.1//EN" "http://www.w3.org/Graphics/SVG/1.1/DTD/svg11.dtd"><svg class="icon" width="200px" height="200.00px" viewBox="0 0 1024 1024" version="1.1" xmlns="http://www.w3.org/2000/svg"><path fill="#333333" d="M580.288 760.896a145.088 145.088 0 1 1 290.112 0 145.088 145.088 0 0 1-290.112 0z m145.024-68.288a68.288 68.288 0 1 0 0 136.576 68.288 68.288 0 0 0 0-136.576zM580.288 263.104a145.088 145.088 0 1 1 290.112 0 145.088 145.088 0 0 1-290.112 0z m145.024-68.288a68.288 68.288 0 1 0 0 136.576 68.288 68.288 0 0 0 0-136.576zM153.6 512a145.088 145.088 0 1 1 290.112 0A145.088 145.088 0 0 1 153.6 512z m145.088-68.288a68.288 68.288 0 1 0 0 136.576 68.288 68.288 0 0 0 0-136.576zM368.512 425.344l248.896-142.208 38.08 66.624-248.896 142.272-38.08-66.688zM617.408 740.928l-248.96-142.272 38.144-66.624 248.96 142.208-38.144 66.688z" /></svg>