<?xml version="1.0" standalone="no"?><!DOCTYPE svg PUBLIC "-//W3C//DTD SVG 1.1//EN" "http://www.w3.org/Graphics/SVG/1.1/DTD/svg11.dtd"><svg class="icon" width="200px" height="200.00px" viewBox="0 0 1024 1024" version="1.1" xmlns="http://www.w3.org/2000/svg"><path fill="#333333" d="M899.392 298.688A85.376 85.376 0 0 0 826.88 256H280.768L256 159.552A42.688 42.688 0 0 0 213.312 128H128a42.688 42.688 0 0 0 0 85.312h52.928l117.76 437.76a42.688 42.688 0 0 0 42.624 31.616h384a42.688 42.688 0 0 0 38.016-23.488l139.904-279.872a85.376 85.376 0 0 0-3.84-80.64zM698.88 597.312H373.76l-69.568-256h522.688l-128 256zM320 896a64 64 0 1 0 0-128 64 64 0 0 0 0 128zM746.688 896a64 64 0 1 0 0-128 64 64 0 0 0 0 128z" /></svg>