<?xml version="1.0" standalone="no"?><!DOCTYPE svg PUBLIC "-//W3C//DTD SVG 1.1//EN" "http://www.w3.org/Graphics/SVG/1.1/DTD/svg11.dtd"><svg class="icon" width="200px" height="200.00px" viewBox="0 0 1024 1024" version="1.1" xmlns="http://www.w3.org/2000/svg"><path fill="#333333" d="M512 293.376a127.552 127.552 0 0 0-127.488 127.552 36.48 36.48 0 1 0 72.896 0A54.656 54.656 0 1 1 512 475.52a36.48 36.48 0 0 0-36.48 36.48v72.832a36.48 36.48 0 1 0 72.96 0v-42.24A127.168 127.168 0 0 0 512 293.312zM512 730.624a36.48 36.48 0 1 0 0-72.832 36.48 36.48 0 0 0 0 72.832zM512 819.2a307.2 307.2 0 1 0 0-614.4 307.2 307.2 0 0 0 0 614.4zM896 512A384 384 0 1 1 128 512a384 384 0 0 1 768 0z" /></svg>