<?xml version="1.0" standalone="no"?><!DOCTYPE svg PUBLIC "-//W3C//DTD SVG 1.1//EN" "http://www.w3.org/Graphics/SVG/1.1/DTD/svg11.dtd"><svg class="icon" width="200px" height="200.00px" viewBox="0 0 1024 1024" version="1.1" xmlns="http://www.w3.org/2000/svg"><path fill="#333333" d="M355.52 121.6a38.4 38.4 0 0 1 38.4 38.4v39.808h236.16V160a38.4 38.4 0 0 1 76.8 0v39.808h78.912A116.608 116.608 0 0 1 902.4 316.416v469.376a116.608 116.608 0 0 1-116.608 116.608H238.208A116.608 116.608 0 0 1 121.6 785.792V316.416a116.608 116.608 0 0 1 116.608-116.608h78.912V160a38.4 38.4 0 0 1 38.4-38.4z m-38.4 155.008H238.208a39.808 39.808 0 0 0-39.808 39.808v469.376a39.808 39.808 0 0 0 39.808 39.808h547.584a39.872 39.872 0 0 0 39.808-39.808V316.416a39.872 39.872 0 0 0-39.808-39.808h-78.976v39.808a38.4 38.4 0 1 1-76.8 0v-39.808H393.92v39.808a38.4 38.4 0 0 1-76.8 0v-39.808z m-39.04 196.288a38.4 38.4 0 0 1 38.4-38.4h391.04a38.4 38.4 0 0 1 0 76.8h-391.04a38.4 38.4 0 0 1-38.4-38.4z" /></svg>