<?xml version="1.0" standalone="no"?><!DOCTYPE svg PUBLIC "-//W3C//DTD SVG 1.1//EN" "http://www.w3.org/Graphics/SVG/1.1/DTD/svg11.dtd"><svg class="icon" width="200px" height="200.00px" viewBox="0 0 1024 1024" version="1.1" xmlns="http://www.w3.org/2000/svg"><path fill="#333333" d="M482.176 176.576a192.64 192.64 0 0 1 136.32-54.976 192.64 192.64 0 0 1 135.296 57.344c35.84 36.224 56.064 85.12 56.512 136.256a196.16 196.16 0 0 1-54.208 137.152l-0.064 0.128-248.704 258.176a115.904 115.904 0 0 1-82.56 35.84 115.264 115.264 0 0 1-83.2-34.368 116.928 116.928 0 0 1-33.728-83.52 117.568 117.568 0 0 1 34.944-82.56l255.232-258.112a38.4 38.4 0 1 1 54.656 54.016l-256 258.752a40.064 40.064 0 0 0-12.032 28.608 40.832 40.832 0 0 0 11.584 28.8 39.104 39.104 0 0 0 27.904 11.52 38.464 38.464 0 0 0 27.712-12.032l0.064-0.128 248.704-258.176c21.312-22.4 33.152-52.288 32.896-83.456a119.36 119.36 0 0 0-34.368-82.88 115.84 115.84 0 0 0-81.344-34.56 115.84 115.84 0 0 0-81.6 32.704L287.488 489.28A198.272 198.272 0 0 0 230.4 628.672c0 52.352 20.544 102.464 57.088 139.392 36.48 36.864 85.824 57.536 137.216 57.536 51.456 0 100.8-20.672 137.28-57.536l242.752-244.864a38.4 38.4 0 1 1 54.528 54.08l-242.688 244.8A269.824 269.824 0 0 1 424.704 902.4a269.824 269.824 0 0 1-191.872-80.32A275.072 275.072 0 0 1 153.6 628.672c0-72.32 28.416-141.888 79.104-193.216L481.28 177.408l0.832-0.832z" /></svg>