<?xml version="1.0" standalone="no"?><!DOCTYPE svg PUBLIC "-//W3C//DTD SVG 1.1//EN" "http://www.w3.org/Graphics/SVG/1.1/DTD/svg11.dtd"><svg class="icon" width="200px" height="200.00px" viewBox="0 0 1024 1024" version="1.1" xmlns="http://www.w3.org/2000/svg"><path fill="#333333" d="M664.896 359.104a35.2 35.2 0 0 1 8.512 36.032l-64 192a35.2 35.2 0 0 1-22.272 22.272l-192 64a35.2 35.2 0 0 1-44.544-44.544l64-192a35.2 35.2 0 0 1 22.272-22.272l192-64a35.2 35.2 0 0 1 36.032 8.512zM475.84 475.84L439.68 584.32l108.48-36.16 36.16-108.48-108.48 36.16zM512 819.2a307.2 307.2 0 1 0 0-614.4 307.2 307.2 0 0 0 0 614.4zM896 512A384 384 0 1 1 128 512a384 384 0 0 1 768 0z" /></svg>