<?xml version="1.0" standalone="no"?><!DOCTYPE svg PUBLIC "-//W3C//DTD SVG 1.1//EN" "http://www.w3.org/Graphics/SVG/1.1/DTD/svg11.dtd"><svg t="1648282986534" class="icon" viewBox="0 0 1024 1024" version="1.1" xmlns="http://www.w3.org/2000/svg" p-id="1570" xmlns:xlink="http://www.w3.org/1999/xlink" width="200" height="200"><defs><style type="text/css">@font-face { font-family: feedback-iconfont; src: url("//at.alicdn.com/t/font_1031158_u69w8yhxdu.woff2?t=1630033759944") format("woff2"), url("//at.alicdn.com/t/font_1031158_u69w8yhxdu.woff?t=1630033759944") format("woff"), url("//at.alicdn.com/t/font_1031158_u69w8yhxdu.ttf?t=1630033759944") format("truetype"); }
</style></defs><path d="M511.914 607.898c-52.98 0-95.984-43.004-95.984-95.984s43.004-95.984 95.984-95.984 95.984 43.004 95.984 95.984-43.004 95.984-95.984 95.984z m0-127.979c-17.545 0-31.995 14.45-31.995 31.995s14.45 31.995 31.995 31.995 31.995-14.45 31.995-31.995-14.278-31.995-31.995-31.995z m119.034 480.092c-9.977 0-19.782-4.817-25.802-13.073l-73.45-100.629c-13.59 0.86-25.975 0.86-39.564 0l-73.45 100.457c-7.912 10.837-21.673 15.653-34.574 11.869-34.575-9.805-67.43-23.394-97.705-40.252a31.945 31.945 0 0 1-15.997-32.854l19.266-123.334a354.954 354.954 0 0 1-27.867-27.867l-123.334 19.266c-13.073 2.064-26.318-4.3-32.854-15.997-16.858-30.447-30.447-63.302-40.252-97.877-3.612-12.9 1.032-26.662 11.87-34.574l100.456-73.45c-0.516-6.88-0.688-13.417-0.688-19.782s0.172-12.901 0.688-19.782l-100.457-73.45c-10.837-7.912-15.653-21.673-11.869-34.574 9.805-34.575 23.394-67.43 40.252-97.705 6.536-11.696 19.781-18.061 32.854-15.997l123.334 19.266a354.954 354.954 0 0 1 27.867-27.867l-19.266-123.334c-2.064-13.245 4.3-26.318 16.17-32.854 30.446-16.858 63.3-30.447 97.704-40.252 12.9-3.612 26.662 1.032 34.574 11.87l73.45 100.456c13.59-0.86 25.803-0.86 39.564 0l73.45-100.457c7.912-10.837 21.673-15.48 34.574-11.869 34.403 9.805 67.258 23.394 97.705 40.252a31.945 31.945 0 0 1 15.997 32.854l-19.266 123.334c9.805 8.773 19.094 18.062 27.867 27.695l123.334-19.266c13.073-2.064 26.318 4.3 32.854 15.997 16.858 30.447 30.447 63.302 40.424 97.877 3.612 12.9-1.032 26.662-11.87 34.574l-100.628 73.45c0.516 6.88 0.688 13.417 0.688 19.782s-0.172 12.901-0.688 19.782l100.457 73.45c10.837 7.912 15.48 21.673 11.869 34.574-9.805 34.575-23.394 67.43-40.424 97.877-6.536 11.696-19.437 18.061-32.854 15.997L762.195 734.5c-8.601 9.805-18.062 19.094-27.867 27.695l19.266 123.334a31.945 31.945 0 0 1-15.997 32.854c-30.275 16.858-63.13 30.447-97.705 40.252-2.924 0.86-5.848 1.376-8.944 1.376z m-293.8-87.383a404.872 404.872 0 0 0 43.52 17.889l70.525-96.5c6.709-9.289 18.061-14.277 29.414-12.9 20.642 2.407 42.144 2.407 62.614 0 11.869-1.377 22.705 3.611 29.414 12.9l70.526 96.5a404.872 404.872 0 0 0 43.52-17.89l-18.406-118.345c-1.72-11.353 2.752-22.878 11.697-29.93 16.341-13.074 31.306-27.867 44.207-44.208 7.225-8.945 18.406-13.59 29.93-11.697l118.347 18.405a404.872 404.872 0 0 0 17.889-43.52l-96.5-70.525c-9.289-6.709-14.277-18.061-12.9-29.414 1.203-10.321 1.891-20.642 1.891-31.307s-0.688-20.986-1.892-31.307c-1.376-11.352 3.612-22.705 12.901-29.414l96.5-70.526a404.872 404.872 0 0 0-17.89-43.52L754.11 355.726c-11.353 1.72-22.878-2.752-29.93-11.697-12.902-16.17-27.695-31.134-44.208-44.207-8.945-7.225-13.417-18.578-11.697-29.93l18.577-118.519a404.872 404.872 0 0 0-43.52-17.89l-70.525 96.5c-6.709 9.29-17.717 14.45-29.414 12.902-20.47-2.408-41.972-2.408-62.614 0-11.525 1.376-22.705-3.612-29.586-12.901l-70.526-96.5a404.872 404.872 0 0 0-43.52 17.89l18.406 118.345c1.72 11.353-2.752 22.878-11.697 29.93-16.341 12.902-31.134 27.867-44.207 44.208-7.225 8.945-18.578 13.417-29.93 11.697l-118.347-18.405a404.872 404.872 0 0 0-17.89 43.52l96.5 70.525c9.29 6.709 14.278 18.061 12.902 29.586-1.204 10.15-1.892 20.642-1.892 31.135 0 10.665 0.688 20.986 1.892 31.307 1.376 11.525-3.612 22.705-12.901 29.586l-96.5 70.526a404.872 404.872 0 0 0 17.89 43.52l118.345-18.406c11.353-1.72 22.878 2.752 29.93 11.697 12.902 16.341 27.695 31.134 44.208 44.207 8.945 7.225 13.59 18.578 11.697 29.93l-18.405 118.347z" fill="#354052" p-id="1571"></path></svg>