<?xml version="1.0" standalone="no"?><!DOCTYPE svg PUBLIC "-//W3C//DTD SVG 1.1//EN" "http://www.w3.org/Graphics/SVG/1.1/DTD/svg11.dtd"><svg class="icon" width="200px" height="200.00px" viewBox="0 0 1024 1024" version="1.1" xmlns="http://www.w3.org/2000/svg"><path fill="#333333" d="M388.48 607.488l0.128 0.128 1.344 0.768 6.4 3.52A257.92 257.92 0 0 0 512 640a257.92 257.92 0 0 0 123.392-32.448l0.128-0.128a38.4 38.4 0 0 1 41.024 64.96L656 640l20.544 32.448h-0.064l-0.128 0.128-0.32 0.192-0.832 0.512a173.12 173.12 0 0 1-12.352 6.848A334.72 334.72 0 0 1 512 716.8a334.72 334.72 0 0 1-163.2-43.52l-0.896-0.512-0.256-0.192-0.128-0.064-0.064-0.064 20.48-32.448-20.48 32.448a38.4 38.4 0 0 1 40.96-64.96zM499.52 226.816l-272 232.256a19.2 19.2 0 0 0-6.72 14.592v313.6a19.2 19.2 0 0 0 19.2 19.2h544a19.2 19.2 0 0 0 19.2-19.2V473.6a19.2 19.2 0 0 0-6.72-14.592l-272-232.256a19.2 19.2 0 0 0-24.96 0zM177.664 400.64l272-232.192a96 96 0 0 1 124.672 0l272 232.192a96 96 0 0 1 33.664 72.96v313.6a96 96 0 0 1-96 96h-544a96 96 0 0 1-96-96V473.6a96 96 0 0 1 33.664-72.96z" /></svg>