<?xml version="1.0" standalone="no"?><!DOCTYPE svg PUBLIC "-//W3C//DTD SVG 1.1//EN" "http://www.w3.org/Graphics/SVG/1.1/DTD/svg11.dtd"><svg class="icon" width="200px" height="200.00px" viewBox="0 0 1024 1024" version="1.1" xmlns="http://www.w3.org/2000/svg"><path fill="#333333" d="M543.36 283.52l-33.792 17.152 33.728-17.152a38.4 38.4 0 1 1-68.864 34.112 111.104 111.104 0 0 0-24.576-26.112c-19.008-14.592-51.52-30.72-104.064-28.992-30.528 0.96-62.336 19.84-88.064 51.84-25.6 32-40.128 71.04-40.128 101.76 0 71.04 33.536 154.688 98.432 219.584 31.616 31.616 82.688 63.744 128.448 88.832a1239.424 1239.424 0 0 0 79.168 39.68l1.152 0.512 0.256 0.064a38.4 38.4 0 0 1-30.912 70.4l15.488-35.2-15.488 35.2-0.128-0.128-0.448-0.192-1.344-0.64a750.08 750.08 0 0 1-23.68-11.008c-15.616-7.488-37.12-18.304-60.992-31.36-46.72-25.6-106.048-62.08-145.792-101.824C183.872 612.16 140.8 509.44 140.8 416.128c0-51.584 22.784-107.072 57.088-149.76 34.24-42.752 85.12-78.656 145.408-80.64 71.168-2.304 120.96 20.032 153.28 44.8 15.872 12.224 27.2 24.704 34.624 34.432a148.48 148.48 0 0 1 10.88 16.384l0.768 1.344 0.32 0.512 0.064 0.192 0.064 0.128zM475.904 283.52l33.792 17.152-33.792-17.152a38.4 38.4 0 1 0 68.928 34.112 111.104 111.104 0 0 1 24.576-26.112c19.008-14.592 51.52-30.72 104.064-28.992 30.464 0.96 62.336 19.84 88 51.84s40.192 71.04 40.192 101.76c0 71.04-33.536 154.688-98.432 219.584-31.616 31.616-82.688 63.744-128.448 88.832a1239.424 1239.424 0 0 1-79.168 39.68l-1.152 0.512-0.256 0.064a38.4 38.4 0 0 0 30.912 70.4l-15.488-35.2 15.488 35.2 0.128-0.128 0.384-0.192 1.408-0.64a750.08 750.08 0 0 0 23.68-11.008c15.616-7.488 37.12-18.304 60.992-31.36 46.72-25.6 106.048-62.08 145.792-101.824 77.888-77.888 120.96-180.544 120.96-273.92 0-51.584-22.784-107.072-57.088-149.76-34.304-42.752-85.12-78.656-145.408-80.64-71.168-2.304-120.96 20.032-153.28 44.8-15.936 12.224-27.2 24.704-34.688 34.432a148.288 148.288 0 0 0-10.88 16.384l-0.768 1.344-0.256 0.512-0.128 0.192v0.128z" /></svg>