<?xml version="1.0" standalone="no"?><!DOCTYPE svg PUBLIC "-//W3C//DTD SVG 1.1//EN" "http://www.w3.org/Graphics/SVG/1.1/DTD/svg11.dtd"><svg class="icon" width="200px" height="200.00px" viewBox="0 0 1024 1024" version="1.1" xmlns="http://www.w3.org/2000/svg"><path fill="#333333" d="M211.2 211.2a123.712 123.712 0 0 1 87.488-36.288H384a38.4 38.4 0 0 1 0 76.8H298.688a46.912 46.912 0 0 0-46.976 46.976v512a46.912 46.912 0 0 0 46.976 46.912h426.624a46.912 46.912 0 0 0 46.976-46.912v-512a46.912 46.912 0 0 0-46.976-46.976H640a38.4 38.4 0 1 1 0-76.8h85.312a123.712 123.712 0 0 1 123.776 123.776v512a123.776 123.776 0 0 1-123.776 123.712H298.688a123.712 123.712 0 0 1-123.776-123.712v-512c0-32.832 13.056-64.32 36.288-87.488zM469.312 166.4a46.912 46.912 0 0 0 0 93.888h85.376a46.912 46.912 0 0 0 0-93.888H469.312zM345.6 213.312c0-68.352 55.36-123.712 123.712-123.712h85.376a123.712 123.712 0 0 1 0 247.488H469.312A123.712 123.712 0 0 1 345.6 213.312zM667.136 484.864a38.4 38.4 0 0 1 0 54.272l-170.624 170.688a38.4 38.4 0 0 1-54.336 0L356.864 624.512a38.4 38.4 0 1 1 54.272-54.336l58.24 58.176 143.488-143.488a38.4 38.4 0 0 1 54.272 0z" /></svg>