<?xml version="1.0" standalone="no"?><!DOCTYPE svg PUBLIC "-//W3C//DTD SVG 1.1//EN" "http://www.w3.org/Graphics/SVG/1.1/DTD/svg11.dtd"><svg class="icon" width="200px" height="200.00px" viewBox="0 0 1024 1024" version="1.1" xmlns="http://www.w3.org/2000/svg"><path fill="#333333" d="M471.936 256.128l-0.448 0.32-184.064 172.544a38.4 38.4 0 0 1-26.24 10.368h-62.08a3.2 3.2 0 0 0-0.704 0.064V582.4a3.2 3.2 0 0 0 0.704 0.128h62.08a38.4 38.4 0 0 1 26.24 10.368l184.064 172.544a1.664 1.664 0 0 0 0.448 0.32l0.256 0.064c0.32 0.064 0.832 0 1.408-0.128V256.128A3.392 3.392 0 0 0 472.192 256a1.088 1.088 0 0 0-0.256 0.128z m29.824-71.488c25.728 9.984 48.64 34.88 48.64 69.696v513.216c0 34.816-22.912 59.648-48.64 69.632-25.6 9.984-58.368 7.168-82.816-15.68l-172.992-162.176h-46.848c-19.84 0-39.232-7.36-53.888-21.12a73.92 73.92 0 0 1-23.68-53.952V437.632c0-20.736 8.896-40.128 23.68-53.952 14.72-13.76 34.112-21.12 53.888-21.12h46.848l172.992-162.176a78.848 78.848 0 0 1 82.816-15.744z m231.104 66.752A38.4 38.4 0 0 1 787.2 249.6a367.68 367.68 0 0 1 85.184 119.552c19.84 44.864 30.08 93.056 30.08 141.76 0 48.768-10.24 96.96-30.08 141.824-19.84 44.8-48.832 85.44-85.12 119.488a38.4 38.4 0 1 1-52.544-56c28.992-27.2 51.84-59.392 67.392-94.528 15.552-35.2 23.552-72.832 23.552-110.72 0-37.952-8-75.584-23.552-110.72a290.944 290.944 0 0 0-67.392-94.592 38.4 38.4 0 0 1-1.792-54.272z m-110.592 103.68a38.4 38.4 0 0 1 54.272-1.792c21.824 20.48 39.296 44.928 51.264 72a211.84 211.84 0 0 1 0 171.328 221.44 221.44 0 0 1-51.264 72 38.4 38.4 0 1 1-52.48-56.064c14.464-13.568 25.792-29.568 33.536-46.976a134.912 134.912 0 0 0 0-109.248 144.576 144.576 0 0 0-33.536-46.976 38.4 38.4 0 0 1-1.792-54.272z" /></svg>